<svg width="36" height="36" viewBox="0 0 36 36" fill="none" xmlns="http://www.w3.org/2000/svg">
<path d="M17.617 0C27.3461 0 35.2325 8.05853 35.2325 18C35.2325 27.9415 27.3461 36 17.617 36C7.88787 36 0.00146484 27.9415 0.00146484 18C0.00146484 8.05853 7.88787 0 17.617 0ZM23.6936 25.337C24.0175 24.3211 25.5356 14.1973 25.7232 12.2024C25.7799 11.5983 25.593 11.1968 25.2269 11.0176C24.7842 10.8 24.1286 10.9088 23.3681 11.189C22.3249 11.5732 8.98923 17.3591 8.21875 17.694C7.48804 18.011 6.79722 18.3569 6.79722 18.8578C6.79722 19.2099 7.00171 19.4079 7.5654 19.6137C8.1521 19.8274 9.62951 20.2852 10.5019 20.5309C11.342 20.7681 12.2986 20.5623 12.8348 20.2218C13.4031 19.8611 19.9614 15.3767 20.4324 14.9838C20.9027 14.591 21.278 15.0942 20.8935 15.4878C20.509 15.8807 16.0071 20.3455 15.4135 20.9637C14.6928 21.7143 15.2045 22.4922 15.6877 22.8036C16.2399 23.159 20.2111 25.8809 20.8092 26.3176C21.4074 26.7543 22.014 26.9523 22.5692 26.9523C23.1245 26.9523 23.4171 26.2049 23.6936 25.337Z" fill="#2AABEE"/>
</svg>
