<svg width="36" height="36" viewBox="0 0 36 36" fill="none" xmlns="http://www.w3.org/2000/svg">
<path d="M17.617 0C7.90397 0 0.00146484 8.07495 0.00146484 18C0.00146484 27.9251 7.90397 36 17.617 36C27.3308 36 35.2325 27.9251 35.2325 18C35.2325 8.07495 27.3308 0 17.617 0ZM25.2552 21.5492C26.9685 23.1034 27.3247 23.6583 27.3829 23.753C28.0929 24.9034 26.5955 25.0435 26.5955 25.0435H23.4401C23.4401 25.0435 22.6719 25.0521 22.0155 24.6076C20.9456 23.8915 19.8251 22.5031 19.0377 22.7442C18.3768 22.9461 18.3829 23.8586 18.3829 24.6389C18.3829 24.9183 18.1478 25.0435 17.617 25.0435C17.0862 25.0435 16.8657 25.0435 16.6305 25.0435C14.9019 25.0435 13.0262 24.4487 11.1552 22.4507C8.50823 19.6263 6.18679 13.9367 6.18679 13.9367C6.18679 13.9367 6.04973 13.6503 6.19907 13.4758C6.36833 13.2801 6.82863 13.3052 6.82863 13.3052L9.88836 13.3043C9.88836 13.3043 10.1763 13.3599 10.3831 13.5086C10.5539 13.6307 10.6489 13.8639 10.6489 13.8639C10.6489 13.8639 11.1628 15.5982 11.8177 16.704C13.0967 18.8625 13.6918 18.9172 14.126 18.6848C14.7602 18.3482 14.5534 16.0537 14.5534 16.0537C14.5534 16.0537 14.5817 15.0683 14.2509 14.6293C13.9958 14.2897 13.508 14.1089 13.2951 14.0807C13.1227 14.058 13.4107 13.7497 13.7776 13.5735C14.2677 13.3505 14.9348 13.2934 16.0852 13.3043C16.9805 13.313 17.2387 13.3677 17.5879 13.4499C18.644 13.6988 18.3829 14.3554 18.3829 16.661C18.3829 17.3997 18.2833 18.4382 18.8286 18.7826C19.0638 18.9313 19.8695 19.1129 21.3032 16.7337C21.9841 15.6052 22.5256 13.7332 22.5256 13.7332C22.5256 13.7332 22.6374 13.5274 22.8113 13.4257C22.989 13.3216 22.9836 13.3239 23.2271 13.3239C23.4707 13.3239 25.9131 13.3043 26.4493 13.3043C26.9846 13.3043 27.487 13.2981 27.5736 13.619C27.6977 14.0799 27.1784 15.6592 25.8626 17.3731C23.7005 20.1858 23.4607 19.9229 25.2552 21.5492Z" fill="#333333"/>
</svg>
