<svg width="35" height="35" viewBox="0 0 35 35" fill="none" xmlns="http://www.w3.org/2000/svg">
<path d="M18.109 0.322697C8.98288 0.322697 1.55797 7.98713 1.55797 17.4076C1.55797 20.3492 2.29413 23.2417 3.69017 25.7941L1.58459 33.5492C1.51551 33.8039 1.58243 34.0773 1.7609 34.2667C1.89835 34.4131 2.08543 34.4925 2.27758 34.4925C2.33515 34.4925 2.39343 34.4851 2.45028 34.4709L10.2911 32.466C12.6853 33.7927 15.3817 34.4925 18.109 34.4925C27.235 34.4925 34.6599 26.828 34.6599 17.4076C34.6599 7.98713 27.235 0.322697 18.109 0.322697ZM26.4349 23.4364C26.0809 24.448 24.3825 25.3713 23.5664 25.4955C22.834 25.6062 21.907 25.6537 20.8895 25.3238C20.2729 25.1234 19.4812 24.8574 18.4673 24.4108C14.2051 22.5345 11.4216 18.1601 11.2086 17.8711C10.9964 17.5822 9.47366 15.5231 9.47366 13.3919C9.47366 11.2608 10.5711 10.2126 10.9611 9.77881C11.3511 9.34502 11.811 9.23655 12.0945 9.23655C12.378 9.23655 12.6608 9.24028 12.9091 9.25216C13.1703 9.26553 13.5207 9.1504 13.8654 9.99572C14.2195 10.8633 15.0693 12.9945 15.1744 13.2121C15.2809 13.429 15.3514 13.6823 15.2104 13.9713C15.0693 14.2603 14.9988 14.4408 14.7858 14.6941C14.5728 14.9474 14.3397 15.2586 14.1482 15.4532C13.9352 15.6694 13.7143 15.9034 13.9619 16.3372C14.2094 16.771 15.0621 18.1891 16.3258 19.3375C17.9485 20.8127 19.318 21.2702 19.7426 21.4872C20.167 21.7041 20.4153 21.6678 20.6629 21.3787C20.9105 21.089 21.725 20.1138 22.0078 19.6807C22.2906 19.2476 22.5741 19.3189 22.9642 19.4637C23.3542 19.6079 25.4431 20.6552 25.8677 20.8722C26.2924 21.089 26.5759 21.1975 26.6823 21.378C26.7888 21.5578 26.7888 22.4254 26.4349 23.4364Z" fill="#36AA3C"/>
</svg>
